# xmcd
#
# Track frame offsets:
#	150
#	12493
#	25886
#	36964
#	49045
#	59830
#	73876
#	85678
#	98475
#	110597
#	121512
#	133268
#	143293
#	155093
#	166921
#	177746
#
# Disc length: 2513 seconds
#
# Revision: 1
# Processed by: cddbd v1.5.2PL0 Copyright (c) Steve Scherf et al.
# Submitted via: audiograbber 1.83.01
#
DISCID=dc09cf10
DTITLE=Diverse - Country and Western Hits CD 3
DYEAR=1900
DGENRE=Country
TTITLE0=Hank Williams - Honky Tonkin
TTITLE1=Ray Price - Leve her alone
TTITLE2=Lefty Frizell - Forever and always
TTITLE3=Ernest Tubb - I love you because
TTITLE4=Marty Robbins - Aloa Oe
TTITLE5=Patsy Montana - I wanna be a cowboys sweetheart
TTITLE6=Merle Travis - Cincinnati Lou
TTITLE7=Roy Acuff - Smoky mountain rag
TTITLE8=Don Gibson - Why am I so lonely
TTITLE9=Hank Snow - Music makin' mama from Memphis
TTITLE10=Eddy Arnold - The ritchest man in the world
TTITLE11=Johnny Horton - In my home in shelby county
TTITLE12=Little Jimmy Dickens - Waitress waitress
TTITLE13=Tex Williams - Miss Molly
TTITLE14=Red Foley - Sugarfoot rag
TTITLE15=Jim Reeves - Gypsy heart
EXTD=
EXTT0=
EXTT1=
EXTT2=
EXTT3=
EXTT4=
EXTT5=
EXTT6=
EXTT7=
EXTT8=
EXTT9=
EXTT10=
EXTT11=
EXTT12=
EXTT13=
EXTT14=
EXTT15=
PLAYORDER=
